<svg width="46" height="46" viewBox="0 0 46 46" fill="none" xmlns="http://www.w3.org/2000/svg">
<path d="M44.8827 16.2098L42.6919 14.6206L22.9747 0.173367H22.7338C22.5994 0.0984686 22.4601 0.0404235 22.3175 0H21.9013H21.5069C21.3572 0.0404501 21.2106 0.0984699 21.0688 0.173367H20.8278L1.11062 14.6206C0.773461 14.8726 0.493021 15.2381 0.29791 15.6797C0.102799 16.1213 0 16.6233 0 17.1344C0 17.6455 0.102799 18.1475 0.29791 18.5891C0.493021 19.0308 0.773461 19.3962 1.11062 19.6482L6.5657 23.6357V37.3317C6.5657 39.6306 7.25814 41.8355 8.4907 43.4611C9.72327 45.0867 11.395 46 13.1381 46H30.6644C32.4075 46 34.0793 45.0867 35.3118 43.4611C36.5444 41.8355 37.2368 39.6306 37.2368 37.3317V23.6357L41.6184 20.3995V28.6633C41.6184 29.4296 41.8492 30.1646 42.2601 30.7065C42.6709 31.2483 43.2282 31.5528 43.8092 31.5528C44.3902 31.5528 44.9475 31.2483 45.3583 30.7065C45.7692 30.1646 46 29.4296 46 28.6633V18.7236C45.9993 18.2116 45.8955 17.709 45.6992 17.2673C45.5029 16.8256 45.2211 16.4607 44.8827 16.2098V16.2098ZM32.8552 37.3317C32.8552 38.098 32.6244 38.8329 32.2136 39.3748C31.8027 39.9167 31.2455 40.2211 30.6644 40.2211H13.1381C12.557 40.2211 11.9998 39.9167 11.589 39.3748C11.1781 38.8329 10.9473 38.098 10.9473 37.3317V26.843L20.8278 34.0666L21.1564 34.24H21.3536C21.5354 34.2702 21.7194 34.2702 21.9013 34.24C22.0831 34.2702 22.2671 34.2702 22.449 34.24H22.6461C22.7624 34.2076 22.8736 34.149 22.9747 34.0666L32.8552 26.843V37.3317ZM21.9013 28.2588L6.69715 17.1055L21.9013 5.95226L37.1054 17.1055L21.9013 28.2588Z" fill="black"/>
</svg>
