<svg width="46" height="46" viewBox="0 0 46 46" fill="none" xmlns="http://www.w3.org/2000/svg">
<path d="M11.5 30.6667H18.4C19.01 30.6667 19.595 30.3436 20.0263 29.7685C20.4577 29.1933 20.7 28.4133 20.7 27.6C20.7 26.7867 20.4577 26.0067 20.0263 25.4315C19.595 24.8564 19.01 24.5333 18.4 24.5333H11.5C10.89 24.5333 10.305 24.8564 9.87365 25.4315C9.44232 26.0067 9.2 26.7867 9.2 27.6C9.2 28.4133 9.44232 29.1933 9.87365 29.7685C10.305 30.3436 10.89 30.6667 11.5 30.6667ZM39.1 0H6.9C5.07001 0 3.31496 0.969283 2.02096 2.69462C0.726962 4.41995 0 6.76001 0 9.2V36.8C0 39.24 0.726962 41.58 2.02096 43.3054C3.31496 45.0307 5.07001 46 6.9 46H39.1C40.93 46 42.685 45.0307 43.979 43.3054C45.273 41.58 46 39.24 46 36.8V9.2C46 6.76001 45.273 4.41995 43.979 2.69462C42.685 0.969283 40.93 0 39.1 0ZM41.4 36.8C41.4 37.6133 41.1577 38.3934 40.7263 38.9685C40.295 39.5436 39.71 39.8667 39.1 39.8667H6.9C6.29 39.8667 5.70499 39.5436 5.27365 38.9685C4.84232 38.3934 4.6 37.6133 4.6 36.8V18.4H41.4V36.8ZM41.4 12.2667H4.6V9.2C4.6 8.38667 4.84232 7.60665 5.27365 7.03154C5.70499 6.45643 6.29 6.13333 6.9 6.13333H39.1C39.71 6.13333 40.295 6.45643 40.7263 7.03154C41.1577 7.60665 41.4 8.38667 41.4 9.2V12.2667Z" fill="black"/>
</svg>
