<svg width="104" height="104" viewBox="0 0 104 104" fill="none" xmlns="http://www.w3.org/2000/svg">
<path d="M74.75 45.5C80.1328 45.5 84.5 41.1328 84.5 35.75C84.5 30.3672 80.1328 26 74.75 26C69.3672 26 65 30.3672 65 35.75C65 41.1328 69.3672 45.5 74.75 45.5Z" fill="black"/>
<path d="M91.8125 13H12.1875C9.01875 13 6.5 15.5797 6.5 18.7484V85.2516C6.5 88.4203 9.01875 91 12.1875 91H91.8125C94.9813 91 97.5 88.4203 97.5 85.2516V18.7484C97.5 15.5797 94.9813 13 91.8125 13ZM70.8703 53.1578C70.2609 52.4469 69.3266 51.8984 68.2703 51.8984C67.2344 51.8984 66.5031 52.3859 65.6703 53.0563L61.8719 56.2656C61.0797 56.8344 60.45 57.2203 59.5359 57.2203C58.6625 57.2203 57.8703 56.8953 57.3016 56.3875C57.0984 56.2047 56.7328 55.8594 56.4281 55.5547L45.5 43.7328C44.6875 42.7984 43.4688 42.2094 42.1078 42.2094C40.7469 42.2094 39.4875 42.8797 38.6953 43.7938L13 74.7906V21.8766C13.2031 20.4953 14.2797 19.5 15.6609 19.5H88.3187C89.7203 19.5 90.8578 20.5359 90.9391 21.9375L91 74.8312L70.8703 53.1578Z" fill="black"/>
</svg>
