<svg width="157" height="31" viewBox="0 0 157 31" fill="none" xmlns="http://www.w3.org/2000/svg">
<path d="M0.528409 30V0.90909H6.67898V24.929H19.1506V30H0.528409ZM64.0239 15.4545C64.0239 18.6269 63.4225 21.3258 62.2199 23.5511C61.0267 25.7765 59.3979 27.4763 57.3335 28.6506C55.2786 29.8153 52.968 30.3977 50.4017 30.3977C47.8165 30.3977 45.4964 29.8106 43.4415 28.6364C41.3866 27.4621 39.7625 25.7623 38.5693 23.5369C37.3761 21.3116 36.7795 18.6174 36.7795 15.4545C36.7795 12.2822 37.3761 9.58333 38.5693 7.35795C39.7625 5.13258 41.3866 3.4375 43.4415 2.27273C45.4964 1.09848 47.8165 0.511363 50.4017 0.511363C52.968 0.511363 55.2786 1.09848 57.3335 2.27273C59.3979 3.4375 61.0267 5.13258 62.2199 7.35795C63.4225 9.58333 64.0239 12.2822 64.0239 15.4545ZM57.7881 15.4545C57.7881 13.3996 57.4803 11.6667 56.8648 10.2557C56.2587 8.8447 55.4017 7.77462 54.2938 7.04545C53.1858 6.31629 51.8884 5.9517 50.4017 5.9517C48.915 5.9517 47.6176 6.31629 46.5097 7.04545C45.4017 7.77462 44.54 8.8447 43.9244 10.2557C43.3184 11.6667 43.0153 13.3996 43.0153 15.4545C43.0153 17.5095 43.3184 19.2424 43.9244 20.6534C44.54 22.0644 45.4017 23.1345 46.5097 23.8636C47.6176 24.5928 48.915 24.9574 50.4017 24.9574C51.8884 24.9574 53.1858 24.5928 54.2938 23.8636C55.4017 23.1345 56.2587 22.0644 56.8648 20.6534C57.4803 19.2424 57.7881 17.5095 57.7881 15.4545ZM103.07 10.3125C102.871 9.62121 102.592 9.01042 102.232 8.48011C101.872 7.94034 101.431 7.4858 100.911 7.11648C100.399 6.73769 99.8122 6.44886 99.1493 6.25C98.4959 6.05114 97.7715 5.9517 96.976 5.9517C95.4893 5.9517 94.1824 6.32102 93.0555 7.05966C91.9381 7.79829 91.0669 8.87311 90.4419 10.2841C89.8169 11.6856 89.5044 13.3996 89.5044 15.4261C89.5044 17.4527 89.8122 19.1761 90.4277 20.5966C91.0432 22.017 91.9144 23.1013 93.0413 23.8494C94.1682 24.5881 95.4987 24.9574 97.0328 24.9574C98.4249 24.9574 99.6133 24.7112 100.598 24.2188C101.592 23.7169 102.35 23.0114 102.871 22.1023C103.401 21.1932 103.666 20.1184 103.666 18.8778L104.916 19.0625H97.4163V14.4318H109.59V18.0966C109.59 20.6534 109.05 22.8504 107.97 24.6875C106.891 26.5152 105.404 27.9261 103.51 28.9205C101.616 29.9053 99.4476 30.3977 97.0044 30.3977C94.2771 30.3977 91.8813 29.7964 89.8169 28.5938C87.7525 27.3816 86.1427 25.6629 84.9874 23.4375C83.8415 21.2027 83.2686 18.5511 83.2686 15.483C83.2686 13.125 83.6095 11.0227 84.2913 9.17614C84.9826 7.32008 85.9485 5.74811 87.1891 4.46023C88.4296 3.17235 89.8737 2.19223 91.5215 1.51989C93.1692 0.847537 94.9542 0.511363 96.8766 0.511363C98.5243 0.511363 100.058 0.75284 101.479 1.2358C102.899 1.70928 104.159 2.38163 105.257 3.25284C106.365 4.12405 107.27 5.16098 107.97 6.36364C108.671 7.55682 109.121 8.87311 109.32 10.3125H103.07ZM156.143 15.4545C156.143 18.6269 155.541 21.3258 154.339 23.5511C153.145 25.7765 151.517 27.4763 149.452 28.6506C147.397 29.8153 145.087 30.3977 142.52 30.3977C139.935 30.3977 137.615 29.8106 135.56 28.6364C133.505 27.4621 131.881 25.7623 130.688 23.5369C129.495 21.3116 128.898 18.6174 128.898 15.4545C128.898 12.2822 129.495 9.58333 130.688 7.35795C131.881 5.13258 133.505 3.4375 135.56 2.27273C137.615 1.09848 139.935 0.511363 142.52 0.511363C145.087 0.511363 147.397 1.09848 149.452 2.27273C151.517 3.4375 153.145 5.13258 154.339 7.35795C155.541 9.58333 156.143 12.2822 156.143 15.4545ZM149.907 15.4545C149.907 13.3996 149.599 11.6667 148.984 10.2557C148.377 8.8447 147.52 7.77462 146.413 7.04545C145.305 6.31629 144.007 5.9517 142.52 5.9517C141.034 5.9517 139.736 6.31629 138.628 7.04545C137.52 7.77462 136.659 8.8447 136.043 10.2557C135.437 11.6667 135.134 13.3996 135.134 15.4545C135.134 17.5095 135.437 19.2424 136.043 20.6534C136.659 22.0644 137.52 23.1345 138.628 23.8636C139.736 24.5928 141.034 24.9574 142.52 24.9574C144.007 24.9574 145.305 24.5928 146.413 23.8636C147.52 23.1345 148.377 22.0644 148.984 20.6534C149.599 19.2424 149.907 17.5095 149.907 15.4545Z" fill="black"/>
</svg>
