<svg width="46" height="46" viewBox="0 0 46 46" fill="none" xmlns="http://www.w3.org/2000/svg">
<path d="M7.8881 1.35149C7.45945 0.923012 6.95057 0.583129 6.39052 0.351241C5.83046 0.119353 5.23019 4.51471e-09 4.62399 0C4.01779 -4.51469e-09 3.41753 0.119353 2.85747 0.351241C2.29741 0.583129 1.78853 0.923012 1.35988 1.35149C0.931235 1.77996 0.591213 2.28863 0.35923 2.84846C0.127247 3.40829 0.00784581 4.00831 0.00784581 4.61426C0.00784582 5.22021 0.127247 5.82023 0.35923 6.38006C0.591213 6.93989 0.931235 7.44856 1.35988 7.87703L16.5311 22.9961L1.35988 38.1151C0.928983 38.5423 0.586969 39.0506 0.353568 39.6106C0.120167 40.1706 0 40.7712 0 41.3779C0 41.9846 0.120167 42.5852 0.353568 43.1452C0.586969 43.7052 0.928983 44.2135 1.35988 44.6407C1.78727 45.0714 2.29574 45.4133 2.85596 45.6466C3.41619 45.8799 4.01709 46 4.62399 46C5.23089 46 5.83179 45.8799 6.39202 45.6466C6.95225 45.4133 7.46072 45.0714 7.8881 44.6407L26.2774 26.2589C26.7083 25.8316 27.0504 25.3234 27.2838 24.7634C27.5172 24.2034 27.6373 23.6027 27.6373 22.9961C27.6373 22.3894 27.5172 21.7888 27.2838 21.2288C27.0504 20.6688 26.7083 20.1605 26.2774 19.7333L7.8881 1.35149ZM41.4027 0.0188034C40.1834 0.0188034 39.014 0.502967 38.1519 1.36478C37.2897 2.2266 36.8053 3.39547 36.8053 4.61426V41.3779C36.8053 42.5967 37.2897 43.7656 38.1519 44.6274C39.014 45.4892 40.1834 45.9734 41.4027 45.9734C42.622 45.9734 43.7913 45.4892 44.6535 44.6274C45.5156 43.7656 46 42.5967 46 41.3779V4.61426C46 3.39547 45.5156 2.2266 44.6535 1.36478C43.7913 0.502967 42.622 0.0188034 41.4027 0.0188034Z" fill="black"/>
</svg>
