<svg width="46" height="46" viewBox="0 0 46 46" fill="none" xmlns="http://www.w3.org/2000/svg">
<path d="M45.9838 13.39C45.9949 13.2446 45.9949 13.0985 45.9838 12.9531V12.9531L41.3855 1.45446C41.2059 0.99994 40.8862 0.614462 40.4728 0.353948C40.0593 0.0934343 39.5737 -0.0285669 39.0863 0.00564212H6.89758C6.4371 0.00519625 5.98709 0.143061 5.60585 0.401379C5.22461 0.659697 4.92971 1.02657 4.75933 1.45446L0.160943 12.9531C0.149861 13.0985 0.149861 13.2446 0.160943 13.39C0.0845431 13.518 0.0301414 13.6579 0 13.8039V13.8039C0.0255914 15.3936 0.462657 16.9495 1.26857 18.3199C2.07448 19.6902 3.22172 20.8283 4.59838 21.623V43.7003C4.59838 44.3102 4.84062 44.8951 5.2718 45.3264C5.70299 45.7577 6.28779 46 6.89758 46H39.0863C39.6961 46 40.2809 45.7577 40.712 45.3264C41.1432 44.8951 41.3855 44.3102 41.3855 43.7003V21.715C42.7754 20.9123 43.9312 19.7598 44.7379 18.372C45.5446 16.9841 45.9742 15.4093 45.9838 13.8039V13.8039C46.0054 13.6668 46.0054 13.5271 45.9838 13.39V13.39ZM25.2911 41.4006H20.6927V32.2017H25.2911V41.4006ZM36.7871 41.4006H29.8895V29.902C29.8895 29.2921 29.6473 28.7071 29.2161 28.2758C28.7849 27.8445 28.2001 27.6023 27.5903 27.6023H18.3935C17.7838 27.6023 17.1989 27.8445 16.7678 28.2758C16.3366 28.7071 16.0943 29.2921 16.0943 29.902V41.4006H9.19677V23.0028C10.5061 22.9954 11.7987 22.7085 12.9883 22.1612C14.1778 21.6139 15.2368 20.8188 16.0943 19.8292C16.9574 20.808 18.0188 21.592 19.208 22.1289C20.3973 22.6659 21.6871 22.9436 22.9919 22.9436C24.2967 22.9436 25.5866 22.6659 26.7758 22.1289C27.9651 21.592 29.0265 20.808 29.8895 19.8292C30.7471 20.8188 31.8061 21.6139 32.9956 22.1612C34.1851 22.7085 35.4778 22.9954 36.7871 23.0028V41.4006ZM36.7871 18.4034C35.5675 18.4034 34.3979 17.9188 33.5355 17.0562C32.6732 16.1937 32.1887 15.0238 32.1887 13.8039C32.1887 13.194 31.9465 12.6091 31.5153 12.1778C31.0841 11.7465 30.4993 11.5042 29.8895 11.5042C29.2797 11.5042 28.6949 11.7465 28.2637 12.1778C27.8325 12.6091 27.5903 13.194 27.5903 13.8039C27.5903 15.0238 27.1058 16.1937 26.2435 17.0562C25.3811 17.9188 24.2115 18.4034 22.9919 18.4034C21.7724 18.4034 20.6027 17.9188 19.7404 17.0562C18.878 16.1937 18.3935 15.0238 18.3935 13.8039C18.3935 13.194 18.1513 12.6091 17.7201 12.1778C17.2889 11.7465 16.7041 11.5042 16.0943 11.5042C15.4846 11.5042 14.8998 11.7465 14.4686 12.1778C14.0374 12.6091 13.7952 13.194 13.7952 13.8039C13.8178 14.408 13.7213 15.0105 13.5111 15.5772C13.3009 16.1439 12.9812 16.6636 12.5703 17.1068C12.1593 17.5499 11.665 17.9077 11.1158 18.1597C10.5666 18.4118 9.97308 18.5532 9.36921 18.5759C8.14964 18.6216 6.96186 18.1809 6.06715 17.3507C5.62414 16.9396 5.26642 16.4453 5.01441 15.8959C4.76239 15.3465 4.62103 14.7529 4.59838 14.1489L8.46103 4.60508H37.5228L41.3855 14.1489C41.2983 15.308 40.7756 16.3911 39.9225 17.1804C39.0694 17.9697 37.9492 18.4067 36.7871 18.4034V18.4034Z" fill="black"/>
</svg>
